<svg xmlns="http://www.w3.org/2000/svg" width="312" height="312" viewbox="0 0 312 312" preserveAspectRatio="none"><rect x="0" y="0" width="100%" height="100%" fill="rgb(110, 61, 145)" /><circle cx="26" cy="26" r="21.666666666667" fill="none" stroke="#ddd" style="opacity:0.10666666666667;stroke-width:8.6666666666667px;" /><circle cx="26" cy="26" r="10.833333333333" fill="#ddd" fill-opacity="0.054666666666667" /><circle cx="78" cy="26" r="21.666666666667" fill="none" stroke="#ddd" style="opacity:0.14133333333333;stroke-width:8.6666666666667px;" /><circle cx="78" cy="26" r="10.833333333333" fill="#222" fill-opacity="0.046" /><circle cx="130" cy="26" r="21.666666666667" fill="none" stroke="#ddd" style="opacity:0.14133333333333;stroke-width:8.6666666666667px;" /><circle cx="130" cy="26" r="10.833333333333" fill="#ddd" fill-opacity="0.037333333333333" /><circle cx="182" cy="26" r="21.666666666667" fill="none" stroke="#222" style="opacity:0.028666666666667;stroke-width:8.6666666666667px;" /><circle cx="182" cy="26" r="10.833333333333" fill="#222" fill-opacity="0.11533333333333" /><circle cx="234" cy="26" r="21.666666666667" fill="none" stroke="#222" style="opacity:0.098;stroke-width:8.6666666666667px;" /><circle cx="234" cy="26" r="10.833333333333" fill="#ddd" fill-opacity="0.02" /><circle cx="286" cy="26" r="21.666666666667" fill="none" stroke="#222" style="opacity:0.098;stroke-width:8.6666666666667px;" /><circle cx="286" cy="26" r="10.833333333333" fill="#ddd" fill-opacity="0.072" /><circle cx="26" cy="78" r="21.666666666667" fill="none" stroke="#ddd" style="opacity:0.037333333333333;stroke-width:8.6666666666667px;" /><circle cx="26" cy="78" r="10.833333333333" fill="#222" fill-opacity="0.080666666666667" /><circle cx="78" cy="78" r="21.666666666667" fill="none" stroke="#222" style="opacity:0.028666666666667;stroke-width:8.6666666666667px;" /><circle cx="78" cy="78" r="10.833333333333" fill="#222" fill-opacity="0.13266666666667" /><circle cx="130" cy="78" r="21.666666666667" fill="none" stroke="#ddd" style="opacity:0.14133333333333;stroke-width:8.6666666666667px;" /><circle cx="130" cy="78" r="10.833333333333" fill="#222" fill-opacity="0.11533333333333" /><circle cx="182" cy="78" r="21.666666666667" fill="none" stroke="#ddd" style="opacity:0.037333333333333;stroke-width:8.6666666666667px;" /><circle cx="182" cy="78" r="10.833333333333" fill="#ddd" fill-opacity="0.054666666666667" /><circle cx="234" cy="78" r="21.666666666667" fill="none" stroke="#ddd" style="opacity:0.124;stroke-width:8.6666666666667px;" /><circle cx="234" cy="78" r="10.833333333333" fill="#222" fill-opacity="0.098" /><circle cx="286" cy="78" r="21.666666666667" fill="none" stroke="#ddd" style="opacity:0.089333333333333;stroke-width:8.6666666666667px;" /><circle cx="286" cy="78" r="10.833333333333" fill="#ddd" fill-opacity="0.072" /><circle cx="26" cy="130" r="21.666666666667" fill="none" stroke="#222" style="opacity:0.080666666666667;stroke-width:8.6666666666667px;" /><circle cx="26" cy="130" r="10.833333333333" fill="#ddd" fill-opacity="0.054666666666667" /><circle cx="78" cy="130" r="21.666666666667" fill="none" stroke="#222" style="opacity:0.028666666666667;stroke-width:8.6666666666667px;" /><circle cx="78" cy="130" r="10.833333333333" fill="#ddd" fill-opacity="0.037333333333333" /><circle cx="130" cy="130" r="21.666666666667" fill="none" stroke="#222" style="opacity:0.046;stroke-width:8.6666666666667px;" /><circle cx="130" cy="130" r="10.833333333333" fill="#ddd" fill-opacity="0.02" /><circle cx="182" cy="130" r="21.666666666667" fill="none" stroke="#ddd" style="opacity:0.124;stroke-width:8.6666666666667px;" /><circle cx="182" cy="130" r="10.833333333333" fill="#ddd" fill-opacity="0.072" /><circle cx="234" cy="130" r="21.666666666667" fill="none" stroke="#ddd" style="opacity:0.10666666666667;stroke-width:8.6666666666667px;" /><circle cx="234" cy="130" r="10.833333333333" fill="#222" fill-opacity="0.13266666666667" /><circle cx="286" cy="130" r="21.666666666667" fill="none" stroke="#222" style="opacity:0.028666666666667;stroke-width:8.6666666666667px;" /><circle cx="286" cy="130" r="10.833333333333" fill="#ddd" fill-opacity="0.089333333333333" /><circle cx="26" cy="182" r="21.666666666667" fill="none" stroke="#ddd" style="opacity:0.14133333333333;stroke-width:8.6666666666667px;" /><circle cx="26" cy="182" r="10.833333333333" fill="#ddd" fill-opacity="0.054666666666667" /><circle cx="78" cy="182" r="21.666666666667" fill="none" stroke="#ddd" style="opacity:0.10666666666667;stroke-width:8.6666666666667px;" /><circle cx="78" cy="182" r="10.833333333333" fill="#ddd" fill-opacity="0.10666666666667" /><circle cx="130" cy="182" r="21.666666666667" fill="none" stroke="#ddd" style="opacity:0.10666666666667;stroke-width:8.6666666666667px;" /><circle cx="130" cy="182" r="10.833333333333" fill="#ddd" fill-opacity="0.10666666666667" /><circle cx="182" cy="182" r="21.666666666667" fill="none" stroke="#ddd" style="opacity:0.054666666666667;stroke-width:8.6666666666667px;" /><circle cx="182" cy="182" r="10.833333333333" fill="#ddd" fill-opacity="0.14133333333333" /><circle cx="234" cy="182" r="21.666666666667" fill="none" stroke="#ddd" style="opacity:0.089333333333333;stroke-width:8.6666666666667px;" /><circle cx="234" cy="182" r="10.833333333333" fill="#222" fill-opacity="0.028666666666667" /><circle cx="286" cy="182" r="21.666666666667" fill="none" stroke="#222" style="opacity:0.13266666666667;stroke-width:8.6666666666667px;" /><circle cx="286" cy="182" r="10.833333333333" fill="#ddd" fill-opacity="0.10666666666667" /><circle cx="26" cy="234" r="21.666666666667" fill="none" stroke="#ddd" style="opacity:0.072;stroke-width:8.6666666666667px;" /><circle cx="26" cy="234" r="10.833333333333" fill="#ddd" fill-opacity="0.124" /><circle cx="78" cy="234" r="21.666666666667" fill="none" stroke="#ddd" style="opacity:0.02;stroke-width:8.6666666666667px;" /><circle cx="78" cy="234" r="10.833333333333" fill="#222" fill-opacity="0.046" /><circle cx="130" cy="234" r="21.666666666667" fill="none" stroke="#ddd" style="opacity:0.037333333333333;stroke-width:8.6666666666667px;" /><circle cx="130" cy="234" r="10.833333333333" fill="#222" fill-opacity="0.028666666666667" /><circle cx="182" cy="234" r="21.666666666667" fill="none" stroke="#ddd" style="opacity:0.054666666666667;stroke-width:8.6666666666667px;" /><circle cx="182" cy="234" r="10.833333333333" fill="#222" fill-opacity="0.080666666666667" /><circle cx="234" cy="234" r="21.666666666667" fill="none" stroke="#ddd" style="opacity:0.072;stroke-width:8.6666666666667px;" /><circle cx="234" cy="234" r="10.833333333333" fill="#ddd" fill-opacity="0.089333333333333" /><circle cx="286" cy="234" r="21.666666666667" fill="none" stroke="#222" style="opacity:0.098;stroke-width:8.6666666666667px;" /><circle cx="286" cy="234" r="10.833333333333" fill="#ddd" fill-opacity="0.124" /><circle cx="26" cy="286" r="21.666666666667" fill="none" stroke="#ddd" style="opacity:0.054666666666667;stroke-width:8.6666666666667px;" /><circle cx="26" cy="286" r="10.833333333333" fill="#ddd" fill-opacity="0.037333333333333" /><circle cx="78" cy="286" r="21.666666666667" fill="none" stroke="#222" style="opacity:0.11533333333333;stroke-width:8.6666666666667px;" /><circle cx="78" cy="286" r="10.833333333333" fill="#ddd" fill-opacity="0.14133333333333" /><circle cx="130" cy="286" r="21.666666666667" fill="none" stroke="#222" style="opacity:0.13266666666667;stroke-width:8.6666666666667px;" /><circle cx="130" cy="286" r="10.833333333333" fill="#222" fill-opacity="0.028666666666667" /><circle cx="182" cy="286" r="21.666666666667" fill="none" stroke="#222" style="opacity:0.080666666666667;stroke-width:8.6666666666667px;" /><circle cx="182" cy="286" r="10.833333333333" fill="#ddd" fill-opacity="0.037333333333333" /><circle cx="234" cy="286" r="21.666666666667" fill="none" stroke="#ddd" style="opacity:0.072;stroke-width:8.6666666666667px;" /><circle cx="234" cy="286" r="10.833333333333" fill="#222" fill-opacity="0.098" /><circle cx="286" cy="286" r="21.666666666667" fill="none" stroke="#ddd" style="opacity:0.02;stroke-width:8.6666666666667px;" /><circle cx="286" cy="286" r="10.833333333333" fill="#222" fill-opacity="0.098" /></svg>